<?xml version="1.0" encoding="UTF-8" standalone="no"?>
<!-- Created with Inkscape (http://www.inkscape.org/) -->

<svg
   width="66.410484mm"
   height="12.488821mm"
   viewBox="0 0 66.410484 12.488821"
   version="1.1"
   id="svg1"
   xml:space="preserve"
   inkscape:export-filename=".\bitmap.png"
   inkscape:export-xdpi="96"
   inkscape:export-ydpi="96"
   inkscape:version="1.4.2 (f4327f4, 2025-05-13)"
   sodipodi:docname="simradar21_full_logo.svg"
   xmlns:inkscape="http://www.inkscape.org/namespaces/inkscape"
   xmlns:sodipodi="http://sodipodi.sourceforge.net/DTD/sodipodi-0.dtd"
   xmlns="http://www.w3.org/2000/svg"
   xmlns:svg="http://www.w3.org/2000/svg"><sodipodi:namedview
     id="namedview1"
     pagecolor="#505050"
     bordercolor="#eeeeee"
     borderopacity="1"
     inkscape:showpageshadow="0"
     inkscape:pageopacity="0"
     inkscape:pagecheckerboard="0"
     inkscape:deskcolor="#505050"
     inkscape:document-units="mm"
     inkscape:zoom="3.3246633"
     inkscape:cx="143.47318"
     inkscape:cy="61.660379"
     inkscape:window-width="1902"
     inkscape:window-height="1088"
     inkscape:window-x="961"
     inkscape:window-y="16"
     inkscape:window-maximized="0"
     inkscape:current-layer="layer1"
     showgrid="false" /><defs
     id="defs1" /><g
     inkscape:label="Layer 1"
     inkscape:groupmode="layer"
     id="layer1"
     transform="translate(-14.134015,-126.62658)"><path
       style="fill:#2dbf7b;fill-opacity:1;stroke:#ffffff;stroke-width:0.529;stroke-dasharray:none;stroke-opacity:1"
       d="m 22.340013,130.54354 c -0.165784,-0.0722 -0.329864,-0.2052 -0.364604,-0.29582 -0.128116,-0.33386 -0.06258,-0.90103 0.132817,-1.14945 0.386555,-0.49141 1.336212,-0.57835 1.754004,-0.16066 0.40645,0.40645 0.141266,1.361 -0.446284,1.6065 -0.406885,0.17 -0.684283,0.16978 -1.075927,-4.9e-4 z"
       id="path36" /><path
       style="fill:#2dbf7b;fill-opacity:1;stroke:#ffffff;stroke-width:0.529167;stroke-linecap:butt;stroke-linejoin:miter;stroke-dasharray:none;stroke-opacity:1;paint-order:normal"
       d="m 76.308582,138.63076 c 0.02732,-0.12017 0.33405,-1.50947 0.681632,-3.08699 0.347585,-1.57751 0.692775,-3.09326 0.76709,-3.3683 l 0.135116,-0.5001 -0.957911,0.62164 c -0.526854,0.3419 -0.998054,0.62161 -1.047111,0.62161 -0.08793,0 -0.889443,-1.21171 -0.888008,-1.3425 4.05e-4,-0.0372 0.842645,-0.58108 1.871637,-1.20901 l 1.870897,-1.14174 0.747778,-4.6e-4 c 0.411279,-4e-4 0.766457,0.0322 0.789284,0.0723 0.02283,0.0402 -0.410455,2.19492 -0.962847,4.78847 -0.55239,2.59355 -1.006015,4.7265 -1.008045,4.73986 -0.0018,0.0133 -0.463929,0.0243 -1.026439,0.0243 -1.010525,0 -1.02215,-0.002 -0.973082,-0.21879 z"
       id="path35" /><path
       style="fill:#2dbf7b;fill-opacity:1;stroke:#ffffff;stroke-width:0.529167;stroke-dasharray:none;stroke-opacity:1"
       d="m 66.672006,138.68076 c 0.0269,-0.0943 0.09713,-0.41522 0.156083,-0.71309 l 0.107183,-0.54156 1.944402,-1.73245 c 2.760501,-2.45959 3.202147,-2.99347 3.202147,-3.8709 0,-1.13334 -1.2687,-1.25254 -2.556717,-0.24024 -0.203,0.15967 -0.38257,0.27385 -0.39905,0.25405 -0.0165,-0.0208 -0.235795,-0.32041 -0.487373,-0.668 l -0.457402,-0.63198 0.341485,-0.29808 c 1.774905,-1.54929 4.612516,-1.43907 5.410886,0.21015 0.24724,0.51071 0.288892,1.43256 0.09232,2.04281 -0.328904,1.021 -1.112766,1.88372 -3.480043,3.83019 l -0.886861,0.72918 1.844688,0.0265 1.84469,0.0265 -0.05113,0.21665 c -0.02812,0.11917 -0.10725,0.50107 -0.175833,0.84863 l -0.124684,0.632 -3.186837,0.0257 c -3.00505,0.0242 -3.184045,0.0167 -3.13794,-0.14583 z"
       id="path34" /><path
       style="fill:#ffffff;fill-opacity:1;stroke:none;stroke-width:0.477553;stroke-opacity:1"
       d="m 62.164582,138.78809 c 0,-0.0878 1.455145,-6.95307 1.517161,-7.1576 0.04303,-0.14217 0.170189,-0.17022 0.768506,-0.17022 0.394306,0 0.734833,0.0327 0.756718,0.0728 0.02187,0.04 0.01217,0.33545 -0.02203,0.6563 l -0.06182,0.58335 0.539157,-0.54349 c 0.62098,-0.62596 1.320295,-0.92385 1.965768,-0.83725 0.212435,0.0285 0.400572,0.0665 0.41809,0.0843 0.0175,0.0188 -0.06453,0.44601 -0.182335,0.9515 l -0.214188,0.91901 -0.493742,-0.0262 c -0.616143,-0.0327 -1.06556,0.15033 -1.521443,0.61975 -0.467965,0.48188 -0.653705,1.01413 -1.093862,3.1347 l -0.368305,1.7744 h -1.00385 c -0.55211,0 -1.003844,-0.0277 -1.003844,-0.0615 z"
       id="path33" /><path
       style="fill:#ffffff;fill-opacity:1;stroke:none;stroke-width:0.477553;stroke-opacity:1"
       d="m 34.974083,138.63076 c 0.02992,-0.12017 0.363503,-1.67967 0.741318,-3.46524 0.377814,-1.78555 0.713289,-3.35143 0.745495,-3.47976 0.05623,-0.22407 0.08798,-0.23222 0.800559,-0.20522 l 0.742003,0.0282 -0.03387,0.6109 -0.03387,0.6109 0.53155,-0.53155 c 0.417413,-0.41742 0.651877,-0.56652 1.091927,-0.69445 0.484445,-0.14084 1.144323,-0.14767 1.278665,-0.0117 0.02163,0.0217 -0.06037,0.44875 -0.182188,0.94915 l -0.221504,0.90985 -0.462333,-0.0287 c -0.254285,-0.0167 -0.60703,0.0187 -0.78388,0.0775 -0.426462,0.14084 -0.980659,0.72265 -1.233142,1.2948 -0.161883,0.36684 -0.972234,3.76774 -0.972234,4.08029 0,0.0415 -0.464145,0.0757 -1.031433,0.0757 -1.020928,0 -1.030878,-0.003 -0.97705,-0.21875 z"
       id="path32" /><path
       style="fill:#ffffff;fill-opacity:1;stroke:none;stroke-width:0.477553;stroke-opacity:1"
       d="m 23.467891,138.70846 c 0,-0.18896 1.458454,-7.0725 1.519347,-7.17103 0.02627,-0.0425 0.37962,-0.0772 0.785207,-0.0772 h 0.737433 l -0.06413,0.68989 -0.06412,0.68988 0.26892,-0.32528 c 0.36719,-0.44415 0.594329,-0.63617 1.022126,-0.86407 1.06638,-0.56808 2.293886,-0.1875 2.63973,0.81853 l 0.119233,0.34682 0.364645,-0.43623 c 0.430824,-0.5154 1.1538,-0.90845 1.815092,-0.98677 0.3885,-0.046 0.569627,-0.01 0.994164,0.19772 1.169481,0.57218 1.256263,1.45836 0.491843,5.02258 l -0.469183,2.18762 -0.996585,0.0277 c -0.714214,0.0208 -0.996587,-0.003 -0.996587,-0.0865 0,-0.0628 0.226356,-1.18055 0.503015,-2.4838 0.410903,-1.9357 0.486572,-2.4358 0.413218,-2.73113 -0.183562,-0.73905 -1.034633,-0.62415 -1.614167,0.21792 -0.377841,0.549 -0.627825,1.35265 -1.036667,3.33268 l -0.355798,1.72317 -0.996587,0.0277 c -0.697671,0.0187 -0.996585,-0.007 -0.996585,-0.0832 0,-0.061 0.221897,-1.16727 0.493104,-2.45842 0.557013,-2.65173 0.564106,-3.03953 0.05885,-3.21718 -0.217554,-0.0765 -0.347879,-0.0568 -0.628352,0.0947 -0.73753,0.39895 -1.08353,1.19385 -1.629534,3.74365 -0.188541,0.88049 -0.36606,1.6774 -0.394491,1.771 -0.04472,0.14717 -0.182187,0.1702 -1.017419,0.1702 -0.778857,0 -0.965725,-0.0272 -0.965725,-0.141 z"
       id="path31" /><path
       style="fill:#ffffff;fill-opacity:1;stroke:none;stroke-width:0.477553;stroke-opacity:1"
       d="m 20.015727,138.72726 c 0.02307,-0.0668 0.373554,-1.69285 0.778861,-3.61335 0.40531,-1.92047 0.759543,-3.5284 0.787186,-3.57312 0.06498,-0.10533 1.858986,-0.10667 1.923899,-8.3e-4 0.03777,0.061 -1.161164,5.94136 -1.445745,7.09085 -0.05185,0.20945 -0.0974,0.21876 -1.07015,0.21876 -0.770341,0 -1.005847,-0.0293 -0.974051,-0.1215 z"
       id="path30" /><path
       id="path29"
       style="fill:#ffffff;fill-opacity:1;stroke:none;stroke-width:0.477553;stroke-opacity:1"
       d="m 54.490214,128.63969 c -0.834615,0 -0.972979,0.0234 -1.019059,0.17054 -0.135774,0.43335 -0.640271,3.06471 -0.640271,3.33933 v 0.3085 l -0.218075,-0.2806 c -0.528984,-0.68081 -1.114081,-0.89972 -1.936316,-0.7245 -1.342645,0.28596 -2.409791,1.62338 -2.819466,3.53363 -0.165907,0.77358 -0.06361,2.37547 0.181384,2.84117 0.297775,0.56605 0.732905,0.9351 1.263489,1.07177 0.791342,0.20393 1.492437,0.0128 2.156975,-0.58756 l 0.399458,-0.36122 v 0.45321 0.45268 l 0.753443,-0.0284 0.753442,-0.0279 1.039213,-4.86172 c 0.571472,-2.67374 1.042114,-4.95963 1.045414,-5.07979 0.006,-0.21177 -0.02113,-0.21911 -0.959631,-0.21911 z m 4.127397,2.76521 c -0.51267,-0.0208 -1.058936,0.13313 -1.560112,0.46509 -0.750661,0.49723 -1.416867,1.5839 -1.746146,2.84685 -0.187333,0.71851 -0.208933,2.20133 -0.04031,2.76417 0.190175,0.63475 0.809775,1.26208 1.392163,1.40974 v 5.1e-4 c 0.789936,0.20025 1.610375,-0.0378 2.280481,-0.66094 l 0.328145,-0.30489 -0.04909,0.46561 -0.04909,0.4656 0.786515,-0.0284 0.786516,-0.0279 0.751892,-3.50056 c 0.4134,-1.92511 0.754276,-3.57656 0.757576,-3.67006 0.0051,-0.1474 -0.09102,-0.17053 -0.711584,-0.17053 -0.77953,0 -0.836317,0.0328 -1.034046,0.59169 l -0.123506,0.3483 -0.410311,-0.41031 c -0.36729,-0.36725 -0.84642,-0.5631 -1.35909,-0.58394 z m -7.187159,1.61024 c 0.817285,0 1.106673,0.87277 0.766879,2.31407 -0.182481,0.774 -0.367427,1.1409 -0.806669,1.59938 -0.295715,0.3086 -0.412451,0.36432 -0.760161,0.36432 -0.595414,0 -0.813904,-0.30579 -0.813904,-1.14101 0,-0.69425 0.208219,-1.61977 0.487826,-2.16783 0.240555,-0.4715 0.818522,-0.96893 1.126029,-0.96893 z m 7.373194,0 c 0.835054,0 1.102783,0.77404 0.785482,2.27169 -0.161102,0.76036 -0.492226,1.38437 -0.930176,1.75287 -0.210337,0.17713 -0.414268,0.25321 -0.675928,0.25321 -0.413587,0 -0.646557,-0.17335 -0.741557,-0.5519 -0.108745,-0.43326 0.03541,-1.71329 0.260966,-2.31614 0.267135,-0.71395 0.909413,-1.40973 1.301213,-1.40973 z" /><path
       id="path25"
       style="fill:#ffffff;fill-opacity:1;stroke:none;stroke-width:0.477553;stroke-opacity:1"
       d="m 43.806628,131.41368 c -1.507718,-0.0285 -2.823886,1.34689 -3.318143,3.54604 -0.173112,0.77024 -0.126428,2.06895 0.0956,2.66237 0.244598,0.65375 0.801157,1.18976 1.327051,1.27796 0.203723,0.0342 0.414202,0.0718 0.467672,0.0868 v -5.2e-4 c 0.153574,0.0389 0.835847,-0.13285 1.185457,-0.29869 0.17532,-0.0832 0.450699,-0.2863 0.611849,-0.45114 l 0.293005,-0.29972 v 0.45579 0.4563 h 0.754993 0.754993 l 0.754476,-3.57343 c 0.414924,-1.9652 0.753092,-3.62754 0.751892,-3.69434 -0.0016,-0.0862 -0.215985,-0.12144 -0.740007,-0.12144 h -0.737423 l -0.199987,0.47335 -0.199988,0.47336 -0.399459,-0.41341 c -0.316303,-0.32725 -0.509439,-0.43654 -0.928625,-0.52504 -0.159372,-0.0336 -0.317386,-0.0513 -0.473357,-0.0543 z m 0.275436,1.62058 c 0.204786,-0.003 0.406784,0.0853 0.591178,0.28267 0.246398,0.26375 0.282154,0.37568 0.282154,0.88521 0,1.12562 -0.411824,2.25161 -1.018543,2.78433 -0.264056,0.23178 -0.442099,0.30644 -0.728121,0.30644 -0.564137,0 -0.781814,-0.32233 -0.780314,-1.15548 0.003,-1.68718 0.850255,-3.09318 1.653646,-3.10317 z" /><path
       style="fill:#ffffff;fill-opacity:1;stroke:none;stroke-width:0.477553;stroke-opacity:1"
       d="m 15.592432,138.94131 c -0.34759,-0.0353 -0.81793,-0.14116 -1.045199,-0.23498 l -0.413218,-0.17042 v -0.81586 c 0,-0.44875 0.01667,-0.81589 0.03685,-0.81589 0.02022,0 0.275612,0.10934 0.567412,0.24289 1.018918,0.46646 2.228097,0.41646 2.57063,-0.10617 0.265573,-0.40532 0.03985,-0.72633 -0.953555,-1.35608 -1.007912,-0.63897 -1.3521,-1.07172 -1.420764,-1.78635 -0.101333,-1.05457 0.582489,-2.05695 1.604826,-2.3524 0.698045,-0.20167 2.095127,-0.15167 2.747663,0.0983 0.86856,0.33285 0.849257,0.29717 0.539625,0.99807 -0.149616,0.33866 -0.30067,0.64763 -0.33567,0.6866 -0.035,0.039 -0.324911,-0.0367 -0.644243,-0.16792 -0.732515,-0.30112 -1.426494,-0.32107 -1.698725,-0.0487 -0.412872,0.41289 -0.213934,0.73439 0.808057,1.30589 1.136825,0.63575 1.620528,1.4156 1.47597,2.37956 -0.239039,1.59405 -1.628044,2.3695 -3.839671,2.14364 z"
       id="path2" /><path
       style="fill:none;stroke:#ffffff;stroke-width:0.529167;stroke-dasharray:none;stroke-opacity:1"
       id="path1"
       sodipodi:type="arc"
       sodipodi:cx="22.983774"
       sodipodi:cy="129.66681"
       sodipodi:rx="2.3812497"
       sodipodi:ry="2.3812497"
       sodipodi:start="2.9670597"
       sodipodi:end="4.0142573"
       sodipodi:arc-type="arc"
       d="m 20.638701,130.08031 a 2.3812497,2.3812497 0 0 1 0.814435,-2.23764"
       sodipodi:open="true" /><path
       style="fill:none;stroke:#ffffff;stroke-width:0.529167;stroke-dasharray:none;stroke-opacity:1"
       id="path1-6"
       sodipodi:type="arc"
       sodipodi:cx="22.983774"
       sodipodi:cy="129.66681"
       sodipodi:rx="3.7041664"
       sodipodi:ry="3.7041664"
       sodipodi:start="2.9670597"
       sodipodi:end="4.0142573"
       sodipodi:arc-type="arc"
       d="m 19.335882,130.31003 a 3.7041664,3.7041664 0 0 1 1.2669,-3.48078"
       sodipodi:open="true" /><path
       style="fill:none;stroke:#ffffff;stroke-width:0.529167;stroke-dasharray:none;stroke-opacity:1"
       id="path1-1"
       sodipodi:type="arc"
       sodipodi:cx="22.983774"
       sodipodi:cy="129.66681"
       sodipodi:rx="2.3812497"
       sodipodi:ry="2.3812497"
       sodipodi:start="5.4105207"
       sodipodi:end="0.17453293"
       sodipodi:arc-type="arc"
       d="m 24.514412,127.84267 a 2.3812497,2.3812497 0 0 1 0.814435,2.23764"
       sodipodi:open="true" /><path
       style="fill:none;stroke:#ffffff;stroke-width:0.529167;stroke-dasharray:none;stroke-opacity:1"
       id="path1-6-3"
       sodipodi:type="arc"
       sodipodi:cx="22.983774"
       sodipodi:cy="129.66681"
       sodipodi:rx="3.7041664"
       sodipodi:ry="3.7041664"
       sodipodi:start="5.4105207"
       sodipodi:end="0.17453293"
       sodipodi:arc-type="arc"
       d="m 25.364767,126.82925 a 3.7041664,3.7041664 0 0 1 1.266899,3.48078"
       sodipodi:open="true" /></g></svg>
